# xmcd
#
# Track frame offsets:
#	150
#	23095
#	47825
#	71790
#	85141
#	114693
#	138180
#	155325
#	170322
#	187680
#	205591
#
# Disc length: 2971 seconds
#
# Revision: 0
# Processed by: cddbd v1.4PL0 Copyright (c) Steve Scherf et al.
# Submitted via: EasyCDDAExtractor 4.6.9.1
#
DISCID=870b990b
DTITLE=Ismo Alanko - i-r-t-i
DYEAR=1996
DGENRE=Other
TTITLE0=Piste
TTITLE1=Kriisistä kriisiin
TTITLE2=Elämä on hauras
TTITLE3=Häpeä ja kateus
TTITLE4=Aika kuolla
TTITLE5=Mitä se mulle kuuluu mitä mä teen
TTITLE6=Rakkauden tila
TTITLE7=Rokin Kreivi
TTITLE8=Miespaholainen
TTITLE9=Lokki
TTITLE10=Lasten laulu
EXTD=
EXTT0=
EXTT1=
EXTT2=
EXTT3=
EXTT4=
EXTT5=
EXTT6=
EXTT7=
EXTT8=
EXTT9=
EXTT10=
PLAYORDER=
